<svg id="Camada_1" data-name="Camada 1" xmlns="http://www.w3.org/2000/svg" viewBox="0 0 1080 1080"><defs><style>.cls-1{fill:#fff;}</style></defs><title>Prancheta 1 cópia 3</title><path class="cls-1" d="M708.17,518.49c0,34.34-.95,67.71.43,101,.62,14.78-4.18,21.72-17.13,28.48-49.94,26.11-99.09,53.74-148.42,81-3.62,2-6.18,2-9.7.06q-57-32-114.16-63.67c-13.78-7.67-27.49-15.49-41.49-22.75-4.52-2.35-6.21-5.17-6.18-10.05.14-21.12.05-42.23.05-63.34,0-55.06.07-110.11-.22-165.16,0-5.1,2.95-6.29,6.09-8.07q69.21-39.09,138.44-78.16c6.35-3.58,12.8-7,19-10.83,2.92-1.83,5.16-1.52,8,0Q595.38,336.54,648,365.91q27.87,15.54,55.86,30.9c2.8,1.53,4.35,3.1,4.33,6.74q-.29,35.51.06,71c0,4.31-1.39,6.83-5.09,8.9Q652.87,511.62,602.67,540c-21.79,12.32-43.6,24.63-65.17,37.33-4.87,2.86-8.37,2.81-13.28,0-37.59-21.22-75.37-42.1-113.1-63.06-2.72-1.51-5.52-2.85-9.12-4.69,0,11.54-.19,22.3.19,33,.07,1.7,2.43,3.84,4.24,4.86,25.43,14.28,51,28.35,76.42,42.56,14.45,8.06,28.87,16.16,43.18,24.46,3.94,2.28,7,2.4,11.19,0,43.66-24.82,87.49-49.36,131.25-74,11.67-6.58,23.28-13.27,34.94-19.88C704.71,519.93,706.13,519.41,708.17,518.49ZM402,435.8c0,11.74.15,22.11-.07,32.48-.09,3.72,1.45,5.62,4.54,7.33q60.75,33.67,121.33,67.63c2.59,1.45,4.21,1.44,6.75,0,12.76-7.44,25.67-14.6,38.54-21.84,33-18.53,65.91-37.14,99-55.46,4.65-2.57,6.18-5.51,6-10.67-.39-10.84-.35-21.71,0-32.55.15-4.06-1.48-6-4.7-7.7-12.65-6.86-25.2-13.9-37.79-20.85Q589.33,368.55,543,342.94c-3.38-1.88-6-1.67-9.24.18Q495.5,365,457.1,386.54c-12.8,7.23-25.64,14.37-39.28,22,2.91,1.88,4.95,3.36,7.14,4.58q32.57,18,65.18,36c13.1,7.24,26.26,14.39,39.28,21.79,1.81,1,4.15,3.16,4.22,4.85.39,10.39.19,20.79.19,32.84Zm-.09,145.46c0,12.4-.16,23.8.17,35.19.05,1.82,1.91,4.25,3.61,5.26,11.19,6.61,22.54,12.94,33.88,19.29,31.64,17.69,63.34,35.26,94.89,53.11,3.7,2.1,6.28,1.44,9.53-.38q27.3-15.35,54.72-30.47c24.46-13.53,49-27,73.4-40.59,2.31-1.29,5.53-3.78,5.6-5.8.47-14.93.25-29.87.25-45.42a56.42,56.42,0,0,0-5.35,2.25c-45.56,25.51-91.16,50.95-136.54,76.77-3.88,2.21-6.19,1.66-9.41-.14q-53.67-30-107.41-60C413.85,587.36,408.28,584.59,401.94,581.26Z"/><path class="cls-1" d="M540.59,363.93c-13.3-.08-24.63,11.3-24.59,24.69,0,12.71,11,23.44,23.92,23.45,13.8,0,24.09-10.05,24.08-23.53C564,375.27,553.29,364,540.59,363.93ZM540,401.12a13.11,13.11,0,0,1-13-12.78,13.58,13.58,0,0,1,13.4-13.46c6.92.05,12.75,6.18,12.76,13.42S547.48,401.12,540,401.12Z"/></svg>